PathFileType	4	(X/Y/Z)	Kaydara																																																																																																																									
DataRate	CameraRate	NumFrames	NumMarkers	Units	OrigDataRate	OrigDataStartFrame	OrigNumFrames																																																																																																																					
30	30	9	41	mm	30	90	179																																																																																																																					
Frame#	Time	EMLA_LFHD			EMLA_RFHD			EMLA_LBHD			EMLA_RBHD			EMLA_LFTShould			EMLA_RFTShould			EMLA_LRRShould			EMLA_RRRShould			EMLA_T10			EMLA_STRN			EMLA_TRUN			EMLA_LSHO			EMLA_LUPA			EMLA_LELB			EMLA_LFRM			EMLA_LWRA			EMLA_LWRB			EMLA_LFIN			EMLA_RSHO			EMLA_RUPA			EMLA_RELB			EMLA_RFRM			EMLA_RWRA			EMLA_RWRB			EMLA_RFIN			EMLA_LFWT			EMLA_RFWT			EMLA_LBWT			EMLA_RBWT			EMLA_LTHI			EMLA_LKNE			EMLA_LSHN			EMLA_LANK			EMLA_LHEE			EMLA_LTOE			EMLA_RTHI			EMLA_RKNE			EMLA_RSHN			EMLA_RANK			EMLA_RHEE			EMLA_RTOE		
		X1	Y1	Z1	X2	Y2	Z2	X3	Y3	Z3	X4	Y4	Z4	X5	Y5	Z5	X6	Y6	Z6	X7	Y7	Z7	X8	Y8	Z8	X9	Y9	Z9	X10	Y10	Z10	X11	Y11	Z11	X12	Y12	Z12	X13	Y13	Z13	X14	Y14	Z14	X15	Y15	Z15	X16	Y16	Z16	X17	Y17	Z17	X18	Y18	Z18	X19	Y19	Z19	X20	Y20	Z20	X21	Y21	Z21	X22	Y22	Z22	X23	Y23	Z23	X24	Y24	Z24	X25	Y25	Z25	X26	Y26	Z26	X27	Y27	Z27	X28	Y28	Z28	X29	Y29	Z29	X30	Y30	Z30	X31	Y31	Z31	X32	Y32	Z32	X33	Y33	Z33	X34	Y34	Z34	X35	Y35	Z35	X36	Y36	Z36	X37	Y37	Z37	X38	Y38	Z38	X39	Y39	Z39	X40	Y40	Z40	X41	Y41	Z41
																																																																																																																												
90	2.977	269.4533	1567.11456	-1349.26041	98.64833	1557.08252	-1354.96384	287.71854	1572.06299	-1499.02451	93.19757	1563.67065	-1506.85211	274.61864	1336.6774	-1424.30008	128.32305	1324.89182	-1426.43906	274.87406	1399.53522	-1566.5062	118.74223	1389.2041	-1568.01361	212.63824	1229.42329	-1630.72281	201.73004	1261.52321	-1394.92767	199.99641	1156.89049	-1386.68884	399.4746	1367.62939	-1467.11975	458.20171	1187.10526	-1466.34079	476.83838	1042.82555	-1452.44614	452.87327	907.07268	-1416.0466	331.86409	808.66074	-1315.22125	392.043	762.43431	-1357.31888	371.43879	750.98831	-1291.24222	8.87947	1360.93842	-1491.39572	-49.21394	1176.88301	-1541.27762	-68.31386	1045.05013	-1601.04767	-75.70994	956.91429	-1642.19177	-50.81535	760.27496	-1596.8959	-83.28815	775.27931	-1676.12946	-108.05011	729.08783	-1637.96677	316.29908	916.45988	-1458.21564	85.12383	937.54768	-1439.8497	261.98175	957.04681	-1651.79459	87.51945	964.41223	-1625.93109	312.95774	709.83017	-1709.99191	338.08311	505.95646	-1741.66031	311.2332	340.87299	-1828.96591	308.66859	236.25887	-1989.86221	242.44436	208.74781	-2081.54999	251.46833	70.21629	-1950.45151	50.36956	657.20436	-1513.71048	58.96528	513.22826	-1339.0921	122.14747	294.99447	-1280.75134	85.23008	117.60431	-1318.50159	139.6862	64.26527	-1366.1911	127.4302	66.15255	-1163.31833
91	3.01	265.41611	1573.50052	-1308.17993	94.74382	1564.55414	-1313.0954	283.04968	1576.82037	-1458.13431	88.47497	1569.55902	-1464.9379	269.57478	1342.96494	-1379.0918	123.85449	1331.39801	-1381.84296	271.31735	1404.56924	-1522.03766	115.03271	1393.53928	-1524.5134	210.45435	1233.58719	-1585.50705	196.71801	1268.30605	-1349.14795	194.16195	1163.75465	-1339.11118	394.59526	1373.54523	-1420.06622	454.13139	1193.42331	-1422.18475	474.50436	1048.96774	-1415.12527	455.2253	911.1142	-1387.01508	338.97797	801.76788	-1292.26547	400.45792	760.62225	-1337.84424	381.24783	744.47189	-1272.32399	4.66812	1366.86142	-1447.57965	-52.39203	1180.6736	-1490.40833	-71.54935	1046.48232	-1545.63812	-78.50968	957.0649	-1583.9035	-52.23459	762.37656	-1531.74713	-85.30275	774.37431	-1611.22482	-109.55234	729.32762	-1571.42303	309.65292	920.05692	-1410.67337	78.43793	945.02754	-1394.61578	257.57055	960.15846	-1604.33197	83.00314	970.70724	-1581.06659	309.05293	701.53618	-1651.04156	341.38535	498.3004	-1671.86447	316.58569	341.75026	-1773.79181	310.59696	256.03495	-1945.36728	242.37686	241.50862	-2033.95447	253.45963	77.15311	-1934.70184	43.07668	663.07808	-1468.48587	53.5894	511.18816	-1304.70856	121.92622	292.42468	-1261.89041	85.61102	118.31739	-1310.61188	138.98541	65.94714	-1364.93652	131.57393	63.59751	-1160.75745
92	3.043	262.08548	1581.78131	-1267.55318	91.35264	1573.41644	-1271.90605	279.33033	1583.36823	-1417.54272	84.81166	1576.7392	-1423.86688	266.5416	1350.6369	-1335.96771	120.96619	1338.83972	-1338.64151	267.9385	1411.69205	-1479.34998	111.4188	1400.18127	-1481.56113	206.45317	1240.44746	-1541.91895	193.96482	1275.98717	-1305.5806	191.40177	1171.56815	-1295.07019	391.71127	1380.79819	-1377.11884	450.44083	1201.27182	-1381.16882	473.12931	1056.48621	-1381.30936	458.70152	917.60658	-1361.5564	347.50862	797.79068	-1273.73566	410.19726	762.09747	-1322.55417	392.02942	740.78918	-1258.21938	1.15151	1373.83331	-1404.05106	-55.4574	1185.61249	-1440.10178	-74.60989	1049.20387	-1489.88663	-81.25566	957.56927	-1523.34488	-53.3691	766.17157	-1460.45303	-86.61838	773.56216	-1540.53909	-110.68745	730.77858	-1498.17703	303.24968	926.55884	-1366.24573	71.9416	952.75871	-1352.77679	254.23805	964.51309	-1561.57639	79.6855	978.01491	-1539.39804	306.09707	689.52576	-1590.31891	341.16718	487.73148	-1589.94766	314.82704	340.14126	-1701.18393	309.32629	273.16677	-1880.07172	240.22024	274.52436	-1964.05594	258.07505	89.52645	-1905.6929	40.98758	669.94698	-1440.21637	53.11544	511.80874	-1278.34076	122.07114	289.69543	-1248.74939	85.93955	118.4479	-1308.1102	139.10081	67.46441	-1364.75784	133.37693	62.89228	-1160.54993
93	3.077	259.51788	1590.57068	-1227.51671	88.89202	1582.15576	-1231.98967	276.89207	1590.82825	-1377.48779	82.42311	1584.25751	-1384.07104	265.06989	1359.19022	-1295.74783	119.64283	1346.80481	-1297.11365	264.04369	1419.96124	-1439.34494	107.50813	1408.01956	-1439.52423	201.68709	1248.92868	-1501.44745	193.14009	1284.32663	-1264.54041	190.47525	1179.72412	-1254.33006	389.68292	1389.36157	-1338.63922	449.79393	1210.64316	-1348.94913	473.17295	1066.175	-1351.88217	463.26691	926.63177	-1339.75647	356.33263	797.35397	-1259.61014	420.88902	767.33955	-1310.49133	403.26618	741.23108	-1247.8376	-1.46009	1381.73218	-1360.91995	-58.13344	1191.48453	-1388.96439	-77.9565	1052.87323	-1432.2644	-84.54891	958.83904	-1460.22858	-52.99105	773.13805	-1384.16382	-87.53141	774.07097	-1465.04379	-110.78307	734.35707	-1418.9653	298.8229	935.33043	-1324.92584	66.83445	959.69284	-1313.40469	252.85105	971.15959	-1521.2114	78.05312	986.68541	-1500.15305	304.321	679.18381	-1527.08679	338.86948	481.06464	-1501.78955	311.25248	340.99411	-1618.06793	304.73989	289.08236	-1803.17703	229.64005	296.73801	-1881.37772	272.06106	108.41774	-1844.30954	42.4149	673.16727	-1414.02832	51.38933	509.99733	-1260.12581	120.96488	287.44667	-1239.29398	86.33002	118.86758	-1306.27258	139.43228	68.38951	-1364.78363	134.51576	62.65969	-1160.89233
94	3.11	258.16406	1598.6557	-1188.5836	87.48209	1590.9201	-1192.88795	275.38752	1598.84033	-1338.62717	80.88779	1592.90756	-1345.02518	264.25388	1368.013	-1257.61513	119.05505	1354.96872	-1257.53601	260.34718	1428.89206	-1401.76392	103.83646	1416.21796	-1399.35303	197.12856	1257.94571	-1463.15475	193.07568	1292.65823	-1225.99892	190.29909	1187.96898	-1216.41907	388.15483	1398.45062	-1303.10226	450.13634	1220.80017	-1320.5101	474.6336	1076.83578	-1328.44254	468.51448	937.388	-1323.02429	366.89064	800.98732	-1248.55881	431.37123	775.681	-1301.31348	414.85313	745.69534	-1239.92432	-3.42061	1390.31525	-1318.90656	-60.64454	1198.38356	-1337.26715	-81.35556	1057.74498	-1373.43475	-87.71743	961.26076	-1394.95697	-50.53001	782.76787	-1305.25406	-87.85216	776.61827	-1385.51102	-109.05843	740.64896	-1335.3244	296.099	946.21529	-1284.58099	63.03819	966.47781	-1275.31212	252.77349	977.47787	-1481.99493	77.71084	994.32724	-1462.54822	303.64664	675.92903	-1460.81772	336.51508	483.6396	-1413.64349	308.00598	347.04857	-1529.16489	298.27398	302.68524	-1716.14716	221.63498	306.18603	-1800.05066	276.47633	124.33714	-1745.26703	39.23262	681.17874	-1386.53778	49.794	508.4304	-1245.12375	119.9149	285.64672	-1232.61574	85.87667	118.85092	-1304.28452	139.17418	69.07589	-1364.70596	134.87848	62.49514	-1161.05362
95	3.143	257.91111	1605.85983	-1150.89432	87.31565	1599.02527	-1154.36707	274.37336	1607.11685	-1301.03485	79.73768	1602.27325	-1306.50421	264.14343	1377.13058	-1221.9017	119.04527	1363.46786	-1219.33205	256.43959	1437.33139	-1366.07178	100.21785	1424.25873	-1360.76233	192.18861	1266.31668	-1425.74081	193.64611	1301.39374	-1188.97377	191.23762	1196.69067	-1179.66568	387.04285	1407.69791	-1270.5806	450.33276	1232.13539	-1293.92838	477.33398	1088.56133	-1309.36874	474.36169	949.08211	-1310.79422	377.3801	807.14928	-1239.78653	440.46787	785.4113	-1295.40375	426.79203	752.77161	-1234.85336	-4.97167	1398.92868	-1278.20503	-62.44675	1206.27205	-1286.14563	-84.17096	1063.62907	-1315.00473	-89.58797	964.87617	-1328.62228	-46.19098	794.9144	-1226.08322	-86.64997	781.93932	-1304.14627	-105.31277	750.31235	-1249.43024	292.67529	956.85555	-1243.71674	58.71257	972.24648	-1239.55612	254.62708	983.38219	-1442.39716	78.91172	1001.39061	-1426.19186	304.48935	678.3345	-1395.67612	333.86757	491.1356	-1325.69504	304.91692	352.02621	-1434.34326	294.58492	302.99728	-1621.32141	218.02055	301.4608	-1707.66144	273.10953	126.41095	-1635.07843	40.00908	687.75864	-1365.48477	47.48762	506.71524	-1235.32516	118.0163	284.37616	-1228.00407	85.21106	118.8882	-1303.58582	138.96013	69.6865	-1364.61334	134.75573	62.38081	-1161.13503
96	3.177	258.49108	1611.37741	-1114.24812	87.80822	1605.14557	-1116.47598	273.74361	1614.23828	-1264.45045	79.04827	1610.17242	-1268.61015	264.48469	1385.56152	-1187.40273	119.43859	1371.12335	-1181.82129	252.39983	1443.74863	-1331.66092	96.92821	1430.7222	-1322.98889	187.13009	1272.54601	-1388.99628	194.79763	1309.55261	-1152.6992	192.43067	1204.81033	-1142.74536	385.95039	1415.85114	-1239.94537	451.96804	1242.97348	-1272.5148	480.49164	1100.33829	-1292.95425	479.69997	960.80826	-1300.41748	387.94624	814.31885	-1232.0549	448.66959	795.78423	-1291.36429	438.31184	760.46654	-1231.75438	-6.14116	1406.65619	-1237.76939	-63.68545	1214.17397	-1236.61827	-86.16902	1069.96109	-1257.65251	-90.33873	969.28604	-1262.5692	-41.24828	810.41061	-1145.57137	-83.41019	790.05135	-1221.08864	-100.06621	762.84241	-1163.58658	288.58187	965.66689	-1202.30064	54.31823	976.84021	-1204.40773	257.52283	988.37784	-1401.81458	81.50326	1007.10899	-1390.29327	310.48218	682.62421	-1331.54022	332.54997	501.1652	-1240.36644	300.68636	354.66892	-1337.73499	289.68178	291.11345	-1519.88251	214.57506	281.9161	-1609.93958	265.39835	119.13084	-1512.13501	45.02365	692.9451	-1349.27658	46.16583	505.55443	-1229.25888	116.27839	283.38535	-1224.83894	86.18396	119.22851	-1302.99454	139.68877	70.31474	-1364.56223	134.42927	62.30443	-1161.23825
97	3.21	259.47308	1614.65683	-1078.02635	88.78992	1608.8472	-1079.0004	273.64239	1618.78998	-1228.33359	78.87113	1615.39474	-1231.17271	264.80804	1391.46744	-1153.13858	120.07146	1376.66794	-1144.71237	248.85748	1447.75818	-1297.16766	94.23707	1434.72534	-1285.53009	182.71633	1276.21323	-1352.33429	195.93815	1315.23834	-1116.48903	193.53512	1210.63072	-1106.05652	384.86305	1421.32889	-1209.07494	452.98367	1251.64612	-1250.77736	483.97381	1110.87975	-1277.9866	484.68399	971.24107	-1290.57343	398.29018	820.58617	-1224.70177	456.12446	805.58151	-1287.77527	448.93055	767.28645	-1229.45274	-6.61269	1412.45438	-1199.21555	-64.39036	1220.65773	-1188.13622	-87.54168	1075.26566	-1200.71129	-90.19164	973.36807	-1196.58203	-35.08853	827.40852	-1066.36559	-78.43553	798.92426	-1139.05869	-93.44126	777.29355	-1078.44955	284.99781	972.1965	-1160.15366	50.25402	978.58307	-1170.15488	260.56763	991.10855	-1361.23734	84.48374	1009.80362	-1354.47601	320.30403	687.77168	-1270.03517	331.99181	513.23219	-1159.69116	297.87348	355.85182	-1241.55334	284.6792	270.19241	-1414.26422	208.59531	248.83152	-1503.74298	261.25315	105.87878	-1379.95743	48.84234	700.00305	-1329.00482	46.05934	504.52827	-1222.35306	116.02344	282.33191	-1222.0903	86.08944	119.66682	-1302.61993	139.64742	71.52709	-1364.48196	134.21684	62.18284	-1161.19179
98	3.243	260.89989	1614.73862	-1041.93153	90.19046	1609.91104	-1041.86615	274.186	1619.55811	-1192.3085	79.41003	1617.25037	-1193.98857	265.3224	1393.62198	-1118.40858	120.85261	1379.13437	-1107.68257	246.01526	1448.80981	-1262.12021	92.18841	1435.73639	-1248.0899	179.23317	1277.01675	-1315.5072	197.20739	1317.66647	-1080.39261	194.61296	1213.10287	-1068.95325	383.87718	1423.423	-1177.18811	453.52715	1257.5885	-1227.38365	486.91799	1119.01711	-1261.49529	489.45854	979.52873	-1279.86107	407.83054	824.54033	-1217.98157	462.92465	813.18909	-1283.55087	458.71864	772.38922	-1227.02942	-6.74391	1414.99603	-1160.35583	-64.52242	1224.73473	-1140.03975	-88.40859	1078.58238	-1144.33945	-89.11395	976.35353	-1131.30943	-28.30111	844.30054	-989.35585	-71.6015	807.84721	-1057.91214	-86.32922	792.53662	-995.27527	281.72863	974.70642	-1119.18205	47.15843	977.35809	-1135.50011	263.74819	990.9256	-1320.51041	87.71688	1009.37798	-1318.43597	326.74957	692.00386	-1210.91087	332.22076	524.57855	-1085.70518	296.58972	355.28522	-1146.45981	281.4329	243.46817	-1303.37234	203.05372	207.12442	-1388.255	261.37047	91.37805	-1240.22659	51.58038	703.08441	-1306.82297	46.44325	503.23711	-1215.3019	116.54741	281.55291	-1218.23601	86.39154	120.3386	-1302.24808	140.50096	72.23223	-1364.38095	134.48094	61.99051	-1160.84549
